<svg xmlns="http://www.w3.org/2000/svg" viewBox="0 0 24 24" width="24" height="24"><path fill="none" d="M0 0h24v24H0z"/><path d="M9.684 17.376C9.139 17.783 8.53 18 7.875 18c-.998 0-1.835-.397-2.361-1.144-.526-.747-.79-1.64-.79-2.832 0-1.097.255-2.142.843-3.09.588-.95 1.475-1.397 2.578-1.397 1.115 0 2.052.48 2.683 1.301.63.822 1.021 1.925 1.21 3.223l.13.179c.151 2.079.355 3.553.702 4.534-.16.152-.489.11-.79-.002v-.002zM7.875 16.2c1.001 0 1.305-1.211 1.305-3.696 0-2.048-.324-3.043-.973-3.043-.59 0-.855.901-.855 2.723 0 1.768.295 4.016.855 4.016zM13.406 17.625c-1.233 0-2.225-.45-2.88-1.303-.655-.853-.982-1.858-.982-3.033 0-1.368.345-2.524 1.036-3.382.691-.859 1.578-1.288 2.66-1.288 1.233 0 2.225.45 2.88 1.303.655.853.982 1.858.982 3.033 0 1.368-.345 2.524-1.036 3.382-.691.859-1.578 1.288-2.66 1.288zm-.177-1.8c.657 0 .984-1.324.984-3.996 0-2.324-.327-3.483-.984-3.483-.657 0-.984 1.159-.984 3.483 0 2.672.327 3.996.984 3.996zm-4.604-9.532c-.585 0-.97-.303-.97-.81 0-.838.752-1.655 1.445-1.655.513 0 .842.328.842.828 0 .29-.09.553-.268.786-.18.233-.427.466-.74.7l-.309.15z" fill="currentColor"/></svg>